<svg t="1730103989556" class="icon" viewBox="0 0 1109 1024" version="1.1" xmlns="http://www.w3.org/2000/svg" p-id="5483" width="200" height="200"><path d="M568.746667 507.050667l-24.917334 26.282666a68.864 68.864 0 0 0-59.136-4.266666L386.816 388.608c-0.170667-0.341333-0.682667-0.512-0.853333-0.853333a55.808 55.808 0 0 0 17.834666-40.533334 57.6 57.6 0 0 0-58.368-56.746666c-32.256 0-58.282667 25.514667-58.282666 56.746666 0 11.264 3.584 21.845333 9.386666 30.549334L184.490667 486.912a58.88 58.88 0 0 0-34.56-11.264c-32.256 0-58.282667 25.514667-58.282667 56.746667 0 31.402667 26.197333 56.746667 58.282667 56.746666 32.256 0 58.282667-25.6 58.282666-56.746666 0-7.424-1.621333-14.592-4.266666-21.077334l116.309333-113.237333a58.026667 58.026667 0 0 0 38.826667 4.010667c0.426667 1.28 0.853333 2.56 1.621333 3.584L458.496 546.133333a66.474667 66.474667 0 0 0-18.602667 45.824c0 37.376 31.317333 67.84 69.717334 67.84 38.4 0 69.717333-30.464 69.717333-67.84a65.877333 65.877333 0 0 0-12.032-38.058666l24.746667-26.197334-23.296-20.565333z m-418.901334 51.456a26.453333 26.453333 0 0 1-26.709333-25.941334 26.453333 26.453333 0 0 1 26.709333-26.026666c14.848 0 26.709333 11.605333 26.709334 26.026666a26.453333 26.453333 0 0 1-26.709334 25.941334z m195.584-185.258667a26.453333 26.453333 0 0 1-26.709333-26.026667 26.453333 26.453333 0 0 1 26.709333-26.026666 26.453333 26.453333 0 0 1 26.709334 26.026666 26.624 26.624 0 0 1-26.709334 26.026667zM790.613333 213.333333a74.581333 74.581333 0 0 0-75.434666 73.386667c0 13.312 3.925333 25.685333 10.410666 36.437333L635.562667 418.218667l34.986666 31.402666 90.453334-95.402666c9.045333 3.754667 19.2 5.973333 29.610666 5.973333a74.581333 74.581333 0 0 0 75.349334-73.386667 74.24 74.24 0 0 0-75.349334-73.386666z m0 100.522667a27.562667 27.562667 0 0 1-27.904-27.136c0-14.933333 12.544-27.136 27.904-27.136 15.36 0 27.818667 12.202667 27.818667 27.136a27.306667 27.306667 0 0 1-27.818667 27.136z" fill="#1296db" p-id="5484"></path><path d="M1101.312 651.008l-109.568-154.794667a282.538667 282.538667 0 0 0 93.866667-209.408C1085.525333 128.426667 953.514667 0 790.869333 0 628.224 0 496.298667 128.426667 496.298667 286.805333c0 158.378667 131.925333 286.72 294.656 286.72 43.605333 0 84.992-9.386667 122.112-25.941333l110.421333 155.733333a46.933333 46.933333 0 0 0 63.658667 11.349334l2.645333-1.706667a44.202667 44.202667 0 0 0 11.52-61.952zM790.613333 517.461333c-130.986667 0-236.970667-103.338667-236.970666-230.656 0-127.317333 106.154667-230.826667 236.970666-230.826666 130.730667 0 236.970667 103.338667 236.970667 230.656 0 127.317333-106.069333 230.826667-236.970667 230.826666z" fill="#1296db" p-id="5485"></path><path d="M876.288 762.88c0 17.322667-14.506667 31.232-32.085333 31.232H95.573333a31.744 31.744 0 0 1-32.085333-31.232V155.306667c0-17.322667 14.506667-31.232 32.085333-31.232h360.618667c8.96-17.92 19.370667-35.242667 31.146667-51.370667H68.096A67.413333 67.413333 0 0 0 0 138.922667V792.746667a67.413333 67.413333 0 0 0 68.096 66.218666h353.28v82.176H229.034667a37.290667 37.290667 0 0 0-37.632 36.608v2.56c0 20.053333 16.896 36.608 37.546666 36.608h481.706667c20.650667 0 37.546667-16.554667 37.546667-36.693333v-2.56a37.290667 37.290667 0 0 0-37.546667-36.522667H518.229333v-82.176h353.28a67.413333 67.413333 0 0 0 68.096-66.218666V658.432a395.946667 395.946667 0 0 1-63.317333 15.189333V762.88z" fill="#1296db" p-id="5486"></path></svg>